# Blender v2.78 (sub 0) OBJ File: ''
# www.blender.org
mtllib cube.mtl
o Cube_Cube.001
v -0.600000 -0.600000 0.600000
v -0.600000 0.600000 0.600000
v -0.600000 -0.600000 -0.600000
v -0.600000 0.600000 -0.600000
v 0.600000 -0.600000 0.600000
v 0.600000 0.600000 0.600000
v 0.600000 -0.600000 -0.600000
v 0.600000 0.600000 -0.600000
vn 0.0000 0.0000 -1.0000
vn 1.0000 0.0000 0.0000
vn 0.0000 -1.0000 0.0000
vn -1.0000 0.0000 0.0000
vn 0.0000 0.0000 1.0000
vn 0.0000 1.0000 0.0000
usemtl black
s off
f 3//1 4//1 8//1 7//1
f 7//2 8//2 6//2 5//2
f 3//3 7//3 5//3 1//3
usemtl white
f 1//4 2//4 4//4 3//4
f 5//5 6//5 2//5 1//5
f 8//6 4//6 2//6 6//6
